<?xml version="1.0" encoding="UTF-8" standalone="no"?>
<!DOCTYPE svg PUBLIC "-//W3C//DTD SVG 1.1//EN"
 "http://www.w3.org/Graphics/SVG/1.1/DTD/svg11.dtd">
<!-- Generated by graphviz version 2.40.1 (20161225.0304)
 -->
<!-- Title: G Pages: 1 -->
<svg width="625pt" height="834pt"
 viewBox="0.00 0.00 625.29 834.00" xmlns="http://www.w3.org/2000/svg" xmlns:xlink="http://www.w3.org/1999/xlink">
<g id="graph0" class="graph" transform="scale(1 1) rotate(0) translate(4 830)">
<title>G</title>
<polygon fill="#ffffff" stroke="transparent" points="-4,4 -4,-830 621.2918,-830 621.2918,4 -4,4"/>
<g id="clust1" class="cluster">
<title>cluster_Global</title>
<path fill="none" stroke="#c0c0c0" d="M20,-8C20,-8 597.2918,-8 597.2918,-8 603.2918,-8 609.2918,-14 609.2918,-20 609.2918,-20 609.2918,-806 609.2918,-806 609.2918,-812 603.2918,-818 597.2918,-818 597.2918,-818 20,-818 20,-818 14,-818 8,-812 8,-806 8,-806 8,-20 8,-20 8,-14 14,-8 20,-8"/>
<text text-anchor="middle" x="308.6459" y="-805.2" font-family="Times,serif" font-size="11.00" fill="#c0c0c0">Global</text>
</g>
<g id="clust2" class="cluster">
<title>cluster_\I18Next</title>
<path fill="none" stroke="#c0c0c0" d="M191.2918,-16C191.2918,-16 589.2918,-16 589.2918,-16 595.2918,-16 601.2918,-22 601.2918,-28 601.2918,-28 601.2918,-778 601.2918,-778 601.2918,-784 595.2918,-790 589.2918,-790 589.2918,-790 191.2918,-790 191.2918,-790 185.2918,-790 179.2918,-784 179.2918,-778 179.2918,-778 179.2918,-28 179.2918,-28 179.2918,-22 185.2918,-16 191.2918,-16"/>
<text text-anchor="middle" x="390.2918" y="-777.2" font-family="Times,serif" font-size="11.00" fill="#c0c0c0">I18Next</text>
</g>
<g id="clust3" class="cluster">
<title>cluster_\I18Next\atk4</title>
<path fill="none" stroke="#c0c0c0" d="M420.7918,-690C420.7918,-690 577.7918,-690 577.7918,-690 583.7918,-690 589.7918,-696 589.7918,-702 589.7918,-702 589.7918,-750 589.7918,-750 589.7918,-756 583.7918,-762 577.7918,-762 577.7918,-762 420.7918,-762 420.7918,-762 414.7918,-762 408.7918,-756 408.7918,-750 408.7918,-750 408.7918,-702 408.7918,-702 408.7918,-696 414.7918,-690 420.7918,-690"/>
<text text-anchor="middle" x="499.2918" y="-749.2" font-family="Times,serif" font-size="11.00" fill="#c0c0c0">atk4</text>
</g>
<g id="clust4" class="cluster">
<title>cluster_\I18Next\Exception</title>
<path fill="none" stroke="#c0c0c0" d="M237.2918,-394C237.2918,-394 581.2918,-394 581.2918,-394 587.2918,-394 593.2918,-400 593.2918,-406 593.2918,-406 593.2918,-670 593.2918,-670 593.2918,-676 587.2918,-682 581.2918,-682 581.2918,-682 237.2918,-682 237.2918,-682 231.2918,-682 225.2918,-676 225.2918,-670 225.2918,-670 225.2918,-406 225.2918,-406 225.2918,-400 231.2918,-394 237.2918,-394"/>
<text text-anchor="middle" x="409.2918" y="-669.2" font-family="Times,serif" font-size="11.00" fill="#c0c0c0">Exception</text>
</g>
<g id="clust5" class="cluster">
<title>cluster_\I18Next\Locale</title>
<path fill="none" stroke="#c0c0c0" d="M199.2918,-124C199.2918,-124 544.2918,-124 544.2918,-124 550.2918,-124 556.2918,-130 556.2918,-136 556.2918,-136 556.2918,-374 556.2918,-374 556.2918,-380 550.2918,-386 544.2918,-386 544.2918,-386 199.2918,-386 199.2918,-386 193.2918,-386 187.2918,-380 187.2918,-374 187.2918,-374 187.2918,-136 187.2918,-136 187.2918,-130 193.2918,-124 199.2918,-124"/>
<text text-anchor="middle" x="371.7918" y="-373.2" font-family="Times,serif" font-size="11.00" fill="#c0c0c0">Locale</text>
</g>
<g id="clust6" class="cluster">
<title>cluster_\I18Next\Locale\Processor</title>
<path fill="none" stroke="#c0c0c0" d="M207.2918,-232C207.2918,-232 522.2918,-232 522.2918,-232 528.2918,-232 534.2918,-238 534.2918,-244 534.2918,-244 534.2918,-346 534.2918,-346 534.2918,-352 528.2918,-358 522.2918,-358 522.2918,-358 207.2918,-358 207.2918,-358 201.2918,-358 195.2918,-352 195.2918,-346 195.2918,-346 195.2918,-244 195.2918,-244 195.2918,-238 201.2918,-232 207.2918,-232"/>
<text text-anchor="middle" x="364.7918" y="-345.2" font-family="Times,serif" font-size="11.00" fill="#c0c0c0">Processor</text>
</g>
<g id="clust7" class="cluster">
<title>cluster_Global\atk4</title>
<path fill="none" stroke="#c0c0c0" d="M28,-457C28,-457 128.2918,-457 128.2918,-457 134.2918,-457 140.2918,-463 140.2918,-469 140.2918,-469 140.2918,-553 140.2918,-553 140.2918,-559 134.2918,-565 128.2918,-565 128.2918,-565 28,-565 28,-565 22,-565 16,-559 16,-553 16,-553 16,-469 16,-469 16,-463 22,-457 28,-457"/>
<text text-anchor="middle" x="78.1459" y="-552.2" font-family="Times,serif" font-size="11.00" fill="#c0c0c0">atk4</text>
</g>
<g id="clust8" class="cluster">
<title>cluster_Global\atk4\core</title>
<path fill="none" stroke="#c0c0c0" d="M36,-465C36,-465 120.2918,-465 120.2918,-465 126.2918,-465 132.2918,-471 132.2918,-477 132.2918,-477 132.2918,-525 132.2918,-525 132.2918,-531 126.2918,-537 120.2918,-537 120.2918,-537 36,-537 36,-537 30,-537 24,-531 24,-525 24,-525 24,-477 24,-477 24,-471 30,-465 36,-465"/>
<text text-anchor="middle" x="78.1459" y="-524.2" font-family="Times,serif" font-size="11.00" fill="#c0c0c0">core</text>
</g>
<!-- \\I18Next\\atk4\\TranslatorI18NextTrait -->
<g id="node1" class="node">
<title>\\I18Next\\atk4\\TranslatorI18NextTrait</title>
<polygon fill="none" stroke="#000000" points="581.7918,-734 416.7918,-734 416.7918,-698 581.7918,-698 581.7918,-734"/>
<text text-anchor="middle" x="499.2918" y="-713.2" font-family="Courier,monospace" font-size="11.00" fill="#000000">TranslatorI18NextTrait</text>
</g>
<!-- \\I18Next\\Exception\\LanguageAlreadyPresent -->
<g id="node2" class="node">
<title>\\I18Next\\Exception\\LanguageAlreadyPresent</title>
<polygon fill="none" stroke="#000000" points="581.7918,-492 416.7918,-492 416.7918,-456 581.7918,-456 581.7918,-492"/>
<text text-anchor="middle" x="499.2918" y="-471.2" font-family="Courier,monospace" font-size="11.00" fill="#000000">LanguageAlreadyPresent</text>
</g>
<!-- Exception -->
<g id="node16" class="node">
<title>Exception</title>
<ellipse fill="none" stroke="#000000" cx="78.1459" cy="-491" rx="46.2923" ry="18"/>
<text text-anchor="middle" x="78.1459" y="-487.3" font-family="Times,serif" font-size="14.00" fill="#c0c0c0">Exception</text>
</g>
<!-- \\I18Next\\Exception\\LanguageAlreadyPresent&#45;&gt;Exception -->
<g id="edge1" class="edge">
<title>\\I18Next\\Exception\\LanguageAlreadyPresent&#45;&gt;Exception</title>
<path fill="none" stroke="#000000" d="M436.2868,-492.106C427.0288,-494.9665 417.6363,-497.9801 408.7918,-501 345.679,-522.5495 334.6096,-565.7527 268.7918,-555"/>
<path fill="none" stroke="#000000" d="M268.7918,-555C215.1787,-546.2412 156.3096,-524.4869 118.3793,-508.77"/>
<polygon fill="none" stroke="#000000" points="119.306,-505.363 108.731,-504.7147 116.5936,-511.8161 119.306,-505.363"/>
</g>
<!-- \\I18Next\\Exception\\LanguageLocaleNotExists -->
<g id="node3" class="node">
<title>\\I18Next\\Exception\\LanguageLocaleNotExists</title>
<polygon fill="none" stroke="#000000" points="585.2918,-546 413.2918,-546 413.2918,-510 585.2918,-510 585.2918,-546"/>
<text text-anchor="middle" x="499.2918" y="-525.2" font-family="Courier,monospace" font-size="11.00" fill="#000000">LanguageLocaleNotExists</text>
</g>
<!-- \\I18Next\\Exception\\LanguageLocaleNotExists&#45;&gt;Exception -->
<g id="edge2" class="edge">
<title>\\I18Next\\Exception\\LanguageLocaleNotExists&#45;&gt;Exception</title>
<path fill="none" stroke="#000000" d="M430.7332,-546.0068C384.7707,-555.6325 322.97,-563.8511 268.7918,-555"/>
</g>
<!-- \\I18Next\\Exception\\LanguageNamespaceMisuse -->
<g id="node4" class="node">
<title>\\I18Next\\Exception\\LanguageNamespaceMisuse</title>
<polygon fill="none" stroke="#000000" points="585.2918,-438 413.2918,-438 413.2918,-402 585.2918,-402 585.2918,-438"/>
<text text-anchor="middle" x="499.2918" y="-417.2" font-family="Courier,monospace" font-size="11.00" fill="#000000">LanguageNamespaceMisuse</text>
</g>
<!-- \\I18Next\\Exception\\Misusage -->
<g id="node6" class="node">
<title>\\I18Next\\Exception\\Misusage</title>
<polygon fill="none" stroke="#000000" points="304.2918,-473 233.2918,-473 233.2918,-437 304.2918,-437 304.2918,-473"/>
<text text-anchor="middle" x="268.7918" y="-452.2" font-family="Courier,monospace" font-size="11.00" fill="#000000">Misusage</text>
</g>
<!-- \\I18Next\\Exception\\LanguageNamespaceMisuse&#45;&gt;\\I18Next\\Exception\\Misusage -->
<g id="edge3" class="edge">
<title>\\I18Next\\Exception\\LanguageNamespaceMisuse&#45;&gt;\\I18Next\\Exception\\Misusage</title>
<path fill="none" stroke="#000000" d="M413.1343,-433.0825C379.652,-438.1666 342.6644,-443.7829 314.5139,-448.0574"/>
<polygon fill="none" stroke="#000000" points="313.9266,-444.6064 304.5654,-449.568 314.9775,-451.527 313.9266,-444.6064"/>
</g>
<!-- \\I18Next\\Exception\\LanguagePathNotDefined -->
<g id="node5" class="node">
<title>\\I18Next\\Exception\\LanguagePathNotDefined</title>
<polygon fill="none" stroke="#000000" points="581.7918,-600 416.7918,-600 416.7918,-564 581.7918,-564 581.7918,-600"/>
<text text-anchor="middle" x="499.2918" y="-579.2" font-family="Courier,monospace" font-size="11.00" fill="#000000">LanguagePathNotDefined</text>
</g>
<!-- \\I18Next\\Exception\\LanguagePathNotDefined&#45;&gt;Exception -->
<g id="edge4" class="edge">
<title>\\I18Next\\Exception\\LanguagePathNotDefined&#45;&gt;Exception</title>
<path fill="none" stroke="#000000" d="M416.6273,-574.1512C372.5988,-569.5088 317.6019,-562.9741 268.7918,-555"/>
</g>
<!-- \\I18Next\\Exception\\Misusage&#45;&gt;Exception -->
<g id="edge5" class="edge">
<title>\\I18Next\\Exception\\Misusage&#45;&gt;Exception</title>
<path fill="none" stroke="#000000" d="M232.9328,-461.7713C203.8032,-467.2719 162.3385,-475.1018 129.6558,-481.2733"/>
<polygon fill="none" stroke="#000000" points="128.9952,-477.8361 119.8183,-483.1309 130.2941,-484.7145 128.9952,-477.8361"/>
</g>
<!-- \\I18Next\\Exception\\NotFoundKey -->
<g id="node7" class="node">
<title>\\I18Next\\Exception\\NotFoundKey</title>
<polygon fill="none" stroke="#000000" points="544.7918,-654 453.7918,-654 453.7918,-618 544.7918,-618 544.7918,-654"/>
<text text-anchor="middle" x="499.2918" y="-633.2" font-family="Courier,monospace" font-size="11.00" fill="#000000">NotFoundKey</text>
</g>
<!-- \\I18Next\\Exception\\NotFoundKey&#45;&gt;Exception -->
<g id="edge6" class="edge">
<title>\\I18Next\\Exception\\NotFoundKey&#45;&gt;Exception</title>
<path fill="none" stroke="#000000" d="M453.4955,-623.0935C439.1116,-618.8377 423.2222,-613.9272 408.7918,-609 345.679,-587.4505 334.6096,-565.7527 268.7918,-555"/>
</g>
<!-- \\I18Next\\Locale\\Processor\\AbstractProcessor -->
<g id="node8" class="node">
<title>\\I18Next\\Locale\\Processor\\AbstractProcessor</title>
<polygon fill="none" stroke="#000000" points="334.2918,-303 203.2918,-303 203.2918,-267 334.2918,-267 334.2918,-303"/>
<text text-anchor="start" x="234.7918" y="-288.2" font-family="Courier,monospace" font-size="11.00" fill="#000000">«abstract»</text>
<text text-anchor="start" x="211.2918" y="-276.2" font-family="Courier,monospace" font-size="11.00" fill="#000000">AbstractProcessor</text>
</g>
<!-- \\I18Next\\Locale\\Processor\\Key -->
<g id="node9" class="node">
<title>\\I18Next\\Locale\\Processor\\Key</title>
<polygon fill="none" stroke="#000000" points="526.2918,-330 472.2918,-330 472.2918,-294 526.2918,-294 526.2918,-330"/>
<text text-anchor="middle" x="499.2918" y="-309.2" font-family="Courier,monospace" font-size="11.00" fill="#000000">Key</text>
</g>
<!-- \\I18Next\\Locale\\Processor\\Key&#45;&gt;\\I18Next\\Locale\\Processor\\AbstractProcessor -->
<g id="edge7" class="edge">
<title>\\I18Next\\Locale\\Processor\\Key&#45;&gt;\\I18Next\\Locale\\Processor\\AbstractProcessor</title>
<path fill="none" stroke="#000000" d="M471.9453,-308.7967C440.7464,-305.1422 388.3883,-299.0091 344.6407,-293.8847"/>
<polygon fill="none" stroke="#000000" points="344.9277,-290.3945 334.5884,-292.7072 344.1132,-297.3469 344.9277,-290.3945"/>
</g>
<!-- \\I18Next\\Locale\\Processor\\Value -->
<g id="node10" class="node">
<title>\\I18Next\\Locale\\Processor\\Value</title>
<polygon fill="none" stroke="#000000" points="526.2918,-276 472.2918,-276 472.2918,-240 526.2918,-240 526.2918,-276"/>
<text text-anchor="middle" x="499.2918" y="-255.2" font-family="Courier,monospace" font-size="11.00" fill="#000000">Value</text>
</g>
<!-- \\I18Next\\Locale\\Processor\\Value&#45;&gt;\\I18Next\\Locale\\Processor\\AbstractProcessor -->
<g id="edge8" class="edge">
<title>\\I18Next\\Locale\\Processor\\Value&#45;&gt;\\I18Next\\Locale\\Processor\\AbstractProcessor</title>
<path fill="none" stroke="#000000" d="M471.9453,-261.2033C440.7464,-264.8578 388.3883,-270.9909 344.6407,-276.1153"/>
<polygon fill="none" stroke="#000000" points="344.1132,-272.6531 334.5884,-277.2928 344.9277,-279.6055 344.1132,-272.6531"/>
</g>
<!-- \\I18Next\\Locale\\Processor -->
<g id="node11" class="node">
<title>\\I18Next\\Locale\\Processor</title>
<polygon fill="none" stroke="#000000" points="537.7918,-222 460.7918,-222 460.7918,-186 537.7918,-186 537.7918,-222"/>
<text text-anchor="middle" x="499.2918" y="-201.2" font-family="Courier,monospace" font-size="11.00" fill="#000000">Processor</text>
</g>
<!-- \\I18Next\\Locale\\Translations -->
<g id="node12" class="node">
<title>\\I18Next\\Locale\\Translations</title>
<polygon fill="none" stroke="#000000" points="548.2918,-168 450.2918,-168 450.2918,-132 548.2918,-132 548.2918,-168"/>
<text text-anchor="middle" x="499.2918" y="-147.2" font-family="Courier,monospace" font-size="11.00" fill="#000000">Translations</text>
</g>
<!-- \\I18Next\\Locale -->
<g id="node13" class="node">
<title>\\I18Next\\Locale</title>
<polygon fill="none" stroke="#000000" points="527.7918,-114 470.7918,-114 470.7918,-78 527.7918,-78 527.7918,-114"/>
<text text-anchor="middle" x="499.2918" y="-93.2" font-family="Courier,monospace" font-size="11.00" fill="#000000">Locale</text>
</g>
<!-- \\I18Next\\Translator -->
<g id="node14" class="node">
<title>\\I18Next\\Translator</title>
<polygon fill="none" stroke="#000000" points="541.2918,-60 457.2918,-60 457.2918,-24 541.2918,-24 541.2918,-60"/>
<text text-anchor="middle" x="499.2918" y="-39.2" font-family="Courier,monospace" font-size="11.00" fill="#000000">Translator</text>
</g>
<!-- \\I18Next\\TranslatorInterface -->
<g id="node15" class="node">
<title>\\I18Next\\TranslatorInterface</title>
<polygon fill="none" stroke="#000000" points="341.2918,-60 196.2918,-60 196.2918,-24 341.2918,-24 341.2918,-60"/>
<text text-anchor="middle" x="268.7918" y="-39.2" font-family="Courier,monospace" font-size="11.00" fill="#000000">TranslatorInterface</text>
</g>
<!-- \\I18Next\\Translator&#45;&gt;\\I18Next\\TranslatorInterface -->
<g id="edge9" class="edge">
<title>\\I18Next\\Translator&#45;&gt;\\I18Next\\TranslatorInterface</title>
<path fill="none" stroke="#000000" stroke-dasharray="1,5" d="M457.2826,-42C427.8544,-42 387.548,-42 351.7592,-42"/>
<polygon fill="none" stroke="#000000" points="351.3077,-38.5001 341.3077,-42 351.3076,-45.5001 351.3077,-38.5001"/>
</g>
</g>
</svg>
